<svg width="12" height="11" fill="none" xmlns="http://www.w3.org/2000/svg"><path d="M4.043 3.857l.307-.042.143-.276 1.285-2.477s0 0 0 0l.002-.003.001-.001a.06.06 0 01.028-.006c.015 0 .025.004.03.007l.002.001h0l.002.003h0l1.284 2.476.143.276.308.042 2.875.399h0l.007.001-2.064 1.914-.242.223.059.323.49 2.708a.058.058 0 01-.025.008c-.008 0-.016 0-.027-.006h0L6.078 8.142l-.269-.134-.268.134L2.97 9.427l-.002.001a.045.045 0 01-.026.006.056.056 0 01-.024-.008l.49-2.709.058-.323-.241-.223L1.16 4.257l.008-.001h0l2.875-.399zM8.705 9.44l.59-.107c.089.492-.456.86-.913.631l.323-.524z" fill="#fff" stroke="#7AC751" stroke-width="1.2"/></svg>