<svg width="14" height="14" fill="none" xmlns="http://www.w3.org/2000/svg"><path fill-rule="evenodd" clip-rule="evenodd" d="M5.616 0C6.135 0 6.632.208 7 .58l5.577 5.644a1.98 1.98 0 01.573 1.4 1.998 1.998 0 01-.573 1.4l-3.66 3.705a1.954 1.954 0 01-1.384.58 1.935 1.935 0 01-1.383-.58L.573 7.084A1.98 1.98 0 010 5.684V1.98C0 1.454.206.951.573.579A1.95 1.95 0 011.955 0h3.661zm0 1.33h-3.66a.636.636 0 00-.454.19.652.652 0 00-.187.459v3.706c0 .171.068.336.187.458l5.577 5.645c.25.253.656.253.906 0l3.661-3.706a.649.649 0 00.139-.706.649.649 0 00-.139-.21L6.07 1.52a.64.64 0 00-.453-.19zM3.944 2.663c.35 0 .684.14.93.39a1.34 1.34 0 010 1.882 1.307 1.307 0 01-1.86 0 1.34 1.34 0 010-1.883c.247-.25.582-.39.93-.39z" fill="#7AC751"/></svg>