<svg width="27" height="27" fill="none" xmlns="http://www.w3.org/2000/svg"><path d="M7.865 7.437a7.993 7.993 0 012.586-1.86c3.13-1.41 6.939-.683 9.307 2.022l1.635-1.401c.091-.078.237-.006.246.116l.407 5.488a.137.137 0 01-.166.142l-5.35-1.248c-.122-.03-.168-.183-.077-.26l1.633-1.4a5.794 5.794 0 00-6.11-1.676 5.72 5.72 0 00-2.22 1.31 5.783 5.783 0 00-1.687 3.111 1.102 1.102 0 01-1.336.87 1.113 1.113 0 01-.832-1.303 7.91 7.91 0 011.964-3.91zm11.455 7.037a5.712 5.712 0 01-1.686 3.11 5.757 5.757 0 01-2.22 1.311c-2.127.68-4.548.098-6.11-1.677l1.633-1.398c.09-.078.042-.233-.077-.26l-5.353-1.252c-.09-.019-.174.053-.165.142l.404 5.485c.011.125.154.194.245.116l1.636-1.401c2.364 2.707 6.176 3.438 9.306 2.023a8.072 8.072 0 002.587-1.862 7.87 7.87 0 001.966-3.908 1.113 1.113 0 00-.831-1.302 1.105 1.105 0 00-1.335.873z" fill="#757575" stroke="#fff" stroke-width=".3"/></svg>