<svg width="14" height="14" viewBox="0 0 14 14" fill="none" xmlns="http://www.w3.org/2000/svg">
<path fill-rule="evenodd" clip-rule="evenodd" d="M5.61628 0C6.13497 0 6.63198 0.208275 6.99881 0.579578L12.5756 6.22431C12.7573 6.40809 12.9014 6.62629 12.9997 6.86646C13.0981 7.10662 13.1487 7.36404 13.1487 7.62401C13.1487 7.88398 13.0981 8.1414 12.9997 8.38157C12.9014 8.62174 12.7573 8.83994 12.5756 9.02372L8.91517 12.7288C8.73361 12.9126 8.51803 13.0585 8.28075 13.158C8.04347 13.2575 7.78915 13.3088 7.53231 13.3088C7.27546 13.3088 7.02114 13.2575 6.78386 13.158C6.54658 13.0585 6.331 12.9126 6.14944 12.7288L0.572606 7.08403C0.391057 6.90026 0.247047 6.68209 0.148799 6.44199C0.0505509 6.20188 -1.11236e-05 5.94454 1.83558e-09 5.68466V1.97895C1.83558e-09 1.4541 0.205988 0.950746 0.572649 0.579621C0.93931 0.208496 1.43661 0 1.95515 0H5.61628ZM5.61628 1.33083H1.95515C1.78532 1.33083 1.62245 1.39912 1.50237 1.52066C1.38229 1.64221 1.31483 1.80706 1.31483 1.97895V5.68466C1.31483 5.85633 1.38254 6.02136 1.50219 6.14313L7.07902 11.7879C7.32884 12.0407 7.73512 12.0407 7.98493 11.7879L11.6461 8.08215C11.7056 8.02196 11.7528 7.95049 11.785 7.87182C11.8172 7.79316 11.8338 7.70884 11.8338 7.62368C11.8338 7.53852 11.8172 7.4542 11.785 7.37554C11.7528 7.29687 11.7056 7.2254 11.6461 7.16521L6.06923 1.52048C6.00966 1.46023 5.93893 1.41246 5.86109 1.37992C5.78325 1.34738 5.69984 1.3307 5.61562 1.33083H5.61628ZM3.94448 2.66167C4.29319 2.66167 4.62762 2.80188 4.8742 3.05146C5.12078 3.30104 5.2593 3.63954 5.2593 3.9925C5.2593 4.34546 5.12078 4.68396 4.8742 4.93354C4.62762 5.18312 4.29319 5.32333 3.94448 5.32333C3.59576 5.32333 3.26133 5.18312 3.01475 4.93354C2.76818 4.68396 2.62965 4.34546 2.62965 3.9925C2.62965 3.63954 2.76818 3.30104 3.01475 3.05146C3.26133 2.80188 3.59576 2.66167 3.94448 2.66167V2.66167Z" fill="#7AC751"/>
</svg>
